# xmcd CD database file
#
# Track frame offsets:
#	150
#	14402
#	32660
#	46982
#	67065
#	84270
#	101192
#	118850
#	135395
#	159195
#
# Disc length: 2355 seconds
#
# Revision: 5
# Processed by: cddbd v1.5.1PL0 Copyright (c) Steve Scherf et al.
# Submitted via: CDex 1.51
#
DISCID=7c09310a
DTITLE=Les Dudek - Freestyle
DYEAR=2001
DGENRE=Blues
TTITLE0=Hot Fun In Dixieland
TTITLE1=Freestyle
TTITLE2=Tied Up
TTITLE3=Another Love
TTITLE4=Wild Hearted Weekend
TTITLE5=Gold n' Snakes
TTITLE6=Boomarang
TTITLE7=He'll Go On
TTITLE8=Behind The Mask
TTITLE9=Living On Maybes
EXTD=YEAR: 2001
EXTT0=
EXTT1=
EXTT2=
EXTT3=
EXTT4=
EXTT5=
EXTT6=
EXTT7=
EXTT8=
EXTT9=
PLAYORDER=
